<svg width="24" height="24" viewBox="0 0 24 24" fill="none" xmlns="http://www.w3.org/2000/svg">
<path d="M22.2994 5.8045C22.7367 5.8045 23.0911 5.4501 23.0911 5.01283V0.791667C23.0911 0.354403 22.7367 0 22.2994 0H18.0782C17.641 0 17.2866 0.354403 17.2866 0.791667V2.11058H5.8045V0.791667C5.8045 0.354403 5.4501 0 5.01283 0H0.791667C0.354403 0 0 0.354403 0 0.791667V5.01283C0 5.4501 0.354403 5.8045 0.791667 5.8045H2.11058V17.2868H0.791667C0.354403 17.2868 0 17.6412 0 18.0785V22.2997C0 22.7369 0.354403 23.0913 0.791667 23.0913H5.01283C5.4501 23.0913 5.8045 22.7369 5.8045 22.2997V20.9807H17.2868V22.2997C17.2868 22.7369 17.6412 23.0913 18.0785 23.0913H22.2997C22.7369 23.0913 23.0913 22.7369 23.0913 22.2997V18.0785C23.0913 17.6412 22.7369 17.2868 22.2997 17.2868H20.9807V5.8045H22.2994ZM18.8699 1.58333H21.5077V4.22117H18.8699V1.58333ZM1.58333 1.58333H4.22117V4.22117H1.58333V1.58333ZM4.22117 21.508H1.58333V18.8702H4.22117V21.508ZM21.5077 21.508H18.8699V18.8702H21.5077V21.508ZM19.3972 17.2868H18.0782C17.641 17.2868 17.2866 17.6412 17.2866 18.0785V19.3974H5.8045V18.0785C5.8045 17.6412 5.4501 17.2868 5.01283 17.2868H3.69392V5.8045H5.01283C5.4501 5.8045 5.8045 5.4501 5.8045 5.01283V3.69392H17.2868V5.01283C17.2868 5.4501 17.6412 5.8045 18.0785 5.8045H19.3974L19.3972 17.2868Z" fill="black"/>
</svg>
