<svg width="27" height="27" viewBox="0 0 27 27" fill="none" xmlns="http://www.w3.org/2000/svg">
<g clip-path="url(#clip0_4010_947)">
<path d="M26.2105 10.001H25.9367C25.7956 6.47305 23.095 3.62441 19.6372 3.22733V0.79158C19.6372 0.344001 19.2747 -0.0185547 18.8277 -0.0185547H8.70272C6.22091 -0.0185547 4.20117 2.00118 4.20117 4.48299V25.4001H0.792557C0.344978 25.4001 -0.0175781 25.7626 -0.0175781 26.2096C-0.0175781 26.6565 0.344964 27.019 0.792557 27.019H9.23006C9.67764 27.019 10.0402 26.6565 10.0402 26.2096C10.0402 25.7626 9.67765 25.4001 9.23006 25.4001H5.82144V4.48299C5.82144 2.89437 7.11409 1.60172 8.70272 1.60172H18.0182V3.22733C14.5604 3.62441 11.8592 6.47305 11.7181 10.001H11.4449C10.9973 10.001 10.6348 10.3635 10.6348 10.8111V13.9752C10.6348 14.4228 10.9973 14.7853 11.4449 14.7853H26.2105C26.6575 14.7853 27.02 14.4228 27.02 13.9752V10.8111C27.02 10.3635 26.6575 10.001 26.2105 10.001ZM18.8277 4.76578C21.7756 4.76578 24.1908 7.08938 24.3385 10.001H13.317C13.464 7.08938 15.8799 4.76578 18.8277 4.76578ZM25.4011 13.165H12.255V11.6213H25.4011V13.165Z" fill="black"/>
<path d="M18.8271 16.3291C18.3801 16.3291 18.0176 16.6916 18.0176 17.1386V18.7206C18.0176 19.1675 18.3801 19.5301 18.8271 19.5301C19.274 19.5301 19.6365 19.1675 19.6365 18.7206V17.1386C19.6365 16.6917 19.274 16.3291 18.8271 16.3291Z" fill="black"/>
<path d="M23.0458 16.3291C22.5989 16.3291 22.2363 16.6916 22.2363 17.1386V18.7206C22.2363 19.1675 22.5989 19.5301 23.0458 19.5301C23.4927 19.5301 23.8553 19.1675 23.8553 18.7206V17.1386C23.8553 16.6917 23.4927 16.3291 23.0458 16.3291Z" fill="black"/>
<path d="M14.609 16.3291C14.1614 16.3291 13.7988 16.6916 13.7988 17.1386V18.7206C13.7988 19.1675 14.1614 19.5301 14.609 19.5301C15.0559 19.5301 15.4184 19.1675 15.4184 18.7206V17.1386C15.4184 16.6917 15.0559 16.3291 14.609 16.3291Z" fill="black"/>
<path d="M16.7177 21.0752C16.2708 21.0752 15.9082 21.4377 15.9082 21.8847V23.4667C15.9082 23.9136 16.2707 24.2762 16.7177 24.2762C17.1646 24.2762 17.5271 23.9136 17.5271 23.4667V21.8847C17.5271 21.4378 17.1646 21.0752 16.7177 21.0752Z" fill="black"/>
<path d="M25.1552 21.0752C24.7083 21.0752 24.3457 21.4377 24.3457 21.8847V23.4667C24.3457 23.9136 24.7082 24.2762 25.1552 24.2762C25.6021 24.2762 25.9647 23.9136 25.9647 23.4667V21.8847C25.9647 21.4378 25.6021 21.0752 25.1552 21.0752Z" fill="black"/>
<path d="M20.9364 21.0752C20.4895 21.0752 20.127 21.4377 20.127 21.8847V23.4667C20.127 23.9136 20.4895 24.2762 20.9364 24.2762C21.3834 24.2762 21.7459 23.9136 21.7459 23.4667V21.8847C21.7459 21.4378 21.3834 21.0752 20.9364 21.0752Z" fill="black"/>
<path d="M12.4976 21.0757C12.0501 21.0757 11.6875 21.4382 11.6875 21.8852V23.4672C11.6875 23.9141 12.05 24.2767 12.4976 24.2767C12.9452 24.2767 13.3078 23.9141 13.3078 23.4672V21.8852C13.3078 21.4382 12.9452 21.0757 12.4976 21.0757Z" fill="black"/>
</g>
<defs>
<clipPath id="clip0_4010_947">
<rect width="27" height="27" fill="white"/>
</clipPath>
</defs>
</svg>
