<svg width="31" height="25" viewBox="0 0 31 25" fill="none" xmlns="http://www.w3.org/2000/svg">
<path d="M30.2734 23.0078H28.2615L27.535 21.1914H29.0625C29.3968 21.1914 29.668 20.9203 29.668 20.5859V15.7422C29.668 15.4078 29.3968 15.1367 29.0625 15.1367H28.457V13.9258C28.457 12.129 27.1455 10.6336 25.4297 10.3444V3.63281C25.4297 1.62968 23.8 0 21.7969 0H8.93066C6.92753 0 5.29785 1.62968 5.29785 3.63281V10.3444C3.58201 10.6336 2.27051 12.129 2.27051 13.9258V15.1367H1.66504C1.3307 15.1367 1.05957 15.4078 1.05957 15.7422V20.5859C1.05957 20.9203 1.3307 21.1914 1.66504 21.1914H3.34394L2.61738 23.0078H0.605469C0.271129 23.0078 0 23.2789 0 23.6133C0 23.9476 0.271129 24.2188 0.605469 24.2188H30.2734C30.6078 24.2188 30.8789 23.9476 30.8789 23.6133C30.8789 23.2789 30.6078 23.0078 30.2734 23.0078ZM24.2188 7.67317C23.543 7.04523 22.6386 6.66016 21.6455 6.66016H18.3154C16.9837 6.66016 15.8113 7.35227 15.1367 8.39501C14.4621 7.35227 13.2897 6.66016 11.958 6.66016H9.08203C8.08894 6.66016 7.18455 7.04523 6.50879 7.67317V4.84375H24.2188V7.67317ZM9.08203 7.87109H11.958C13.3261 7.87109 14.4482 8.94429 14.5269 10.293H6.51315C6.59186 8.94429 7.71397 7.87109 9.08203 7.87109ZM18.3154 7.87109H21.6455C23.0136 7.87109 24.1357 8.94429 24.2144 10.293H15.7465C15.8253 8.94429 16.9474 7.87109 18.3154 7.87109ZM8.93066 1.21094H21.7969C23.1323 1.21094 24.2188 2.29739 24.2188 3.63281H6.50879C6.50879 2.29739 7.59524 1.21094 8.93066 1.21094ZM3.48145 13.9258C3.48145 12.5904 4.5679 11.5039 5.90332 11.5039H24.8242C26.1596 11.5039 27.2461 12.5904 27.2461 13.9258V15.1367H3.48145V13.9258ZM28.457 16.3477V17.5586H2.27051V16.3477H28.457ZM2.27051 18.7695H28.457V19.9805C20.8508 19.9805 9.84214 19.9805 2.27051 19.9805V18.7695ZM23.2033 21.1914L23.9299 23.0078H6.94903L7.67559 21.1914H23.2033ZM3.92168 23.0078L4.64824 21.1914H6.37135L5.64479 23.0078H3.92168ZM25.2342 23.0078L24.5076 21.1914H26.2307L26.9573 23.0078H25.2342Z" fill="black"/>
</svg>
