<svg width="7" height="15" viewBox="0 0 7 15" fill="none" xmlns="http://www.w3.org/2000/svg">
<path fill-rule="evenodd" clip-rule="evenodd" d="M1.47251 7.24947V14.2043C1.47251 14.3046 1.5534 14.3855 1.65365 14.3855H4.23633C4.33658 14.3855 4.41749 14.3046 4.41749 14.2043V7.13602H6.29009C6.38418 7.13602 6.46244 7.06392 6.47079 6.97026L6.65106 4.84045C6.65986 4.73493 6.57675 4.64391 6.47035 4.64391H4.41792V3.13317C4.41792 2.77923 4.70503 2.49211 5.05898 2.49211H6.50202C6.60226 2.49211 6.68316 2.41121 6.68316 2.31096V0.18115C6.68316 0.0813421 6.60226 0 6.50202 0H4.06354C2.63237 0 1.47251 1.15988 1.47251 2.59104V4.64435H0.181156C0.0809092 4.64435 0 4.7257 0 4.8255V6.95532C0 7.05556 0.0813489 7.13647 0.181156 7.13647H1.47251V7.24947Z" fill="white"/>
</svg>
