<svg width="17" height="17" viewBox="0 0 17 17" fill="none" xmlns="http://www.w3.org/2000/svg">
<path d="M0.75 8.25C0.75 4.7145 0.75 2.94675 1.848 1.848C2.9475 0.75 4.7145 0.75 8.25 0.75C11.7855 0.75 13.5532 0.75 14.6512 1.848C15.75 2.9475 15.75 4.7145 15.75 8.25C15.75 11.7855 15.75 13.5532 14.6512 14.6512C13.554 15.75 11.7855 15.75 8.25 15.75C4.7145 15.75 2.94675 15.75 1.848 14.6512C0.75 13.554 0.75 11.7855 0.75 8.25Z" stroke="#696969" stroke-width="1.5"/>
<path d="M11.25 6.75C12.0784 6.75 12.75 6.07843 12.75 5.25C12.75 4.42157 12.0784 3.75 11.25 3.75C10.4216 3.75 9.75 4.42157 9.75 5.25C9.75 6.07843 10.4216 6.75 11.25 6.75Z" stroke="#696969" stroke-width="1.5"/>
<path d="M0.75 8.62492L2.064 7.47517C2.39335 7.18722 2.81981 7.03517 3.25704 7.04979C3.69427 7.06441 4.10962 7.24461 4.419 7.55392L7.6365 10.7714C7.88618 11.0211 8.21591 11.1746 8.56766 11.2051C8.91941 11.2355 9.27063 11.1409 9.5595 10.9379L9.78375 10.7804C10.2004 10.4878 10.7041 10.3451 11.2124 10.3757C11.7206 10.4064 12.2035 10.6086 12.582 10.9492L15 13.1249" stroke="#696969" stroke-width="1.5" stroke-linecap="round"/>
</svg>
