<svg width="24" height="24" viewBox="0 0 24 24" fill="none" xmlns="http://www.w3.org/2000/svg">
<path d="M11.9215 23.8435C5.34785 23.8435 0 18.4952 0 11.922C0 5.34828 5.34829 0 11.9215 0C18.4952 0 23.843 5.34828 23.843 11.922C23.843 18.4952 18.4948 23.8435 11.9215 23.8435ZM11.9215 1.13262C5.9722 1.13262 1.13218 5.97263 1.13218 11.922C1.13218 17.8713 5.9722 22.7113 11.9215 22.7113C17.8708 22.7113 22.7109 17.8713 22.7109 11.922C22.7104 5.97263 17.8704 1.13262 11.9215 1.13262ZM15.9411 7.08459C15.4539 7.08459 15.0591 7.47942 15.0591 7.96658C15.0591 8.45375 15.4539 8.84858 15.9411 8.84858C16.4283 8.84858 16.8231 8.45375 16.8231 7.96658C16.8235 7.47986 16.4283 7.08459 15.9411 7.08459ZM12.0191 8.21588C9.97593 8.21588 8.31349 9.87832 8.31349 11.9215C8.31349 13.9647 9.97593 15.6272 12.0191 15.6272C14.0623 15.6272 15.7248 13.9647 15.7248 11.9215C15.7248 9.87832 14.0628 8.21588 12.0191 8.21588ZM12.0191 14.2958C10.7102 14.2958 9.64529 13.2309 9.64529 11.922C9.64529 10.613 10.7102 9.54812 12.0191 9.54812C13.3281 9.54812 14.393 10.613 14.393 11.922C14.393 13.2309 13.3281 14.2958 12.0191 14.2958ZM19.4968 8.84199C19.4968 6.34592 17.4729 4.32207 14.9769 4.32207H9.01126C6.51475 4.32207 4.49134 6.34548 4.49134 8.84199V14.808C4.49134 17.3041 6.51519 19.3279 9.01126 19.3279H14.9769C17.4734 19.3279 19.4968 17.3045 19.4968 14.808V8.84199ZM18.081 14.808C18.081 16.5223 16.6912 17.9122 14.9764 17.9122H9.01082C7.29606 17.9122 5.90624 16.5223 5.90624 14.808V8.84199C5.90624 7.12767 7.29606 5.73784 9.01082 5.73784H14.9764C16.6907 5.73784 18.081 7.12767 18.081 8.84199V14.808Z" fill="white"/>
</svg>
