<svg width="24" height="24" viewBox="0 0 24 24" fill="none" xmlns="http://www.w3.org/2000/svg">
<path d="M11.98 23.9591C5.37423 23.9591 0 18.5849 0 11.9796C0 5.37378 5.37423 0 11.98 0C18.5858 0 23.9595 5.37422 23.9595 11.9796C23.9595 18.5853 18.5858 23.9591 11.98 23.9591ZM11.98 1.28915C6.08519 1.28915 1.28915 6.08475 1.28915 11.9796C1.28915 17.8744 6.08519 22.67 11.98 22.67C17.8748 22.67 22.6704 17.8744 22.6704 11.9796C22.6704 6.08475 17.8748 1.28915 11.98 1.28915Z" fill="white"/>
<path d="M18.7526 12.8919V17.3648C18.7526 17.4752 18.6629 17.5649 18.5526 17.5649H16.2434C16.133 17.5649 16.0433 17.4752 16.0433 17.3648V13.205C16.0433 12.1102 15.652 11.3627 14.671 11.3627C13.9223 11.3627 13.4778 11.8662 13.2812 12.3533C13.21 12.5274 13.1915 12.7693 13.1915 13.0137V17.3648C13.1915 17.4752 13.1018 17.5649 12.9915 17.5649H10.6831C10.5723 17.5649 10.4826 17.4756 10.4831 17.3648C10.4884 16.2573 10.5117 10.8822 10.4879 9.61852C10.4857 9.50684 10.5759 9.41582 10.688 9.41582H12.9919C13.1023 9.41582 13.192 9.50551 13.192 9.61587V10.5704C13.1867 10.5797 13.1788 10.5885 13.1739 10.5973H13.192V10.5704C13.5521 10.0164 14.1944 9.22412 15.6339 9.22412C17.416 9.22456 18.7526 10.3893 18.7526 12.8919ZM6.47495 17.5649H8.78328C8.89364 17.5649 8.98334 17.4752 8.98334 17.3648V9.61587C8.98334 9.50551 8.89364 9.41582 8.78328 9.41582H6.47495C6.36459 9.41582 6.2749 9.50551 6.2749 9.61587V17.3648C6.2749 17.4756 6.36459 17.5649 6.47495 17.5649Z" fill="white"/>
<path d="M7.54744 8.37954C8.34853 8.37954 8.99795 7.73012 8.99795 6.92903C8.99795 6.12794 8.34853 5.47852 7.54744 5.47852C6.74634 5.47852 6.09692 6.12794 6.09692 6.92903C6.09692 7.73012 6.74634 8.37954 7.54744 8.37954Z" fill="white"/>
</svg>
